<svg xmlns="http://www.w3.org/2000/svg" xmlns:xlink="http://www.w3.org/1999/xlink" viewBox="0 0 210.1 113.59"><defs><style>.cls-1{fill:url(#radial-gradient);}.cls-2{fill:url(#linear-gradient);}.cls-3{fill:url(#linear-gradient-2);}.cls-4{font-size:22.79px;fill:#f7931e;font-family:Roboto-Black, Roboto;font-weight:800;}.cls-5{letter-spacing:-0.01em;}.cls-6{letter-spacing:0em;}.cls-7{font-size:16.17px;font-family:Roboto-Condensed, Roboto;}.cls-8{letter-spacing:0.01em;}.cls-9{letter-spacing:-0.01em;}</style><radialGradient id="radial-gradient" cx="45.62" cy="13.26" r="13.26" gradientUnits="userSpaceOnUse"><stop offset="0" stop-color="#fffa21"/><stop offset="1" stop-color="#ff950e"/></radialGradient><linearGradient id="linear-gradient" x1="14.91" y1="77.67" x2="57.16" y2="4.5" gradientUnits="userSpaceOnUse"><stop offset="0" stop-color="#7cb9e8"/><stop offset="1" stop-color="#00308f"/></linearGradient><linearGradient id="linear-gradient-2" x1="77.35" y1="76.5" x2="4.84" y2="76.5" xlink:href="#linear-gradient"/></defs><g id="Layer_2" data-name="Layer 2"><g id="Layer_1-2" data-name="Layer 1"><circle class="cls-1" cx="45.62" cy="13.26" r="13.26"/><path class="cls-2" d="M7.79,46.15,35.67,24.66a15.35,15.35,0,0,0,20.38-.88A15.31,15.31,0,0,0,57.93,4.94l11.9,15.21c1.21,1.55,2.8,4.13,2.31,6.94a8.23,8.23,0,0,1-3.08,4.73c-4.3,3.59-24,18.28-51.3,39a7.42,7.42,0,0,0-2.91,3.43c-.57,1.77.54,3.38.33,3.52S12,74.61,1.51,59.92A7.07,7.07,0,0,1,.08,54.63c.34-1.87,1.58-3.08,3.86-5.29A32.21,32.21,0,0,1,7.79,46.15Z"/><path class="cls-3" d="M77.32,62.24c-.26,2.58-2.21,4.34-3.2,5.18-4.13,3.51-24,18.75-51.45,39.22-1.52,1.32-2.49,1.71-2.87,3.3-.45,1.91.75,3.51.56,3.64s-3.24-3.19-14.44-18.29A8.12,8.12,0,0,1,5,89.67a7.84,7.84,0,0,1,2.75-4c5.47-4.06,24.15-18.2,52.49-39.55a5.57,5.57,0,0,0,2.16-2.87c.75-2.15-.85-3.72-.63-3.87s3.37,4.14,13.64,17.43A7.85,7.85,0,0,1,77.32,62.24Z"/><text class="cls-4" transform="translate(86.31 49.01)">SUNGRID <tspan x="0" y="20">SO</tspan><tspan class="cls-5" x="29.93" y="20">L</tspan><tspan class="cls-6" x="42.39" y="20">UTIONS</tspan></text><text class="cls-7" transform="translate(88.27 84.39)">NIGER<tspan class="cls-8" x="40.26" y="0">I</tspan><tspan x="44.5" y="0">A LIM</tspan><tspan class="cls-9" x="80.64" y="0">I</tspan><tspan x="84.5" y="0">TED</tspan></text></g></g></svg>