<svg xmlns="http://www.w3.org/2000/svg" xmlns:xlink="http://www.w3.org/1999/xlink" viewBox="0 0 155.53 228.41"><defs><style>.cls-1{fill:url(#radial-gradient);}.cls-2{fill:url(#linear-gradient);}.cls-3{fill:url(#linear-gradient-2);}</style><radialGradient id="radial-gradient" cx="91.74" cy="26.66" r="26.66" gradientUnits="userSpaceOnUse"><stop offset="0" stop-color="#fffa21"/><stop offset="1" stop-color="#ff950e"/></radialGradient><linearGradient id="linear-gradient" x1="29.98" y1="156.18" x2="114.93" y2="9.04" gradientUnits="userSpaceOnUse"><stop offset="0" stop-color="#7cb9e8"/><stop offset="1" stop-color="#00308f"/></linearGradient><linearGradient id="linear-gradient-2" x1="155.53" y1="153.82" x2="9.74" y2="153.82" xlink:href="#linear-gradient"/></defs><g id="Layer_2" data-name="Layer 2"><g id="Layer_1-2" data-name="Layer 1"><circle class="cls-1" cx="91.74" cy="26.66" r="26.66"/><path class="cls-2" d="M15.67,92.8,71.73,49.59c12.44,10,30.31,9,41-1.77,9.74-9.8,11.46-25.63,3.77-37.89l23.93,30.58c2.44,3.12,5.63,8.3,4.65,14-.86,5-4.58,8.17-6.2,9.52-8.63,7.21-48.19,36.76-103.14,78.41-2.1,1.35-5,4.09-5.87,6.89-1.14,3.57,1.09,6.81.67,7.09-.64.43-6.38-6.35-27.48-35.89-3.61-5.25-3.11-9.35-2.88-10.63.68-3.77,3.18-6.2,7.76-10.64A63.31,63.31,0,0,1,15.67,92.8Z"/><path class="cls-3" d="M155.47,125.15c-.51,5.18-4.44,8.72-6.42,10.41-8.31,7.07-48.3,37.71-103.47,78.87-3,2.66-5,3.44-5.76,6.65-.91,3.83,1.5,7,1.11,7.31-.58.4-6.5-6.41-29-36.78-1.49-2.94-2.87-7-1.77-11.3a15.67,15.67,0,0,1,5.53-8c11-8.16,48.55-36.59,105.54-79.53A11.23,11.23,0,0,0,125.56,87c1.5-4.33-1.71-7.5-1.27-7.79s6.78,8.32,27.42,35C153.59,116.73,155.92,120.62,155.47,125.15Z"/></g></g></svg>