<svg xmlns="http://www.w3.org/2000/svg" xmlns:xlink="http://www.w3.org/1999/xlink" viewBox="0 0 196.75 98.76"><defs><style>.cls-1{fill:url(#radial-gradient);}.cls-2{fill:url(#linear-gradient);}.cls-3{fill:url(#linear-gradient-2);}.cls-4{fill:#f7931e;}.cls-5{font-size:18.45px;font-family:Roboto-Condensed, Roboto;}</style><radialGradient id="radial-gradient" cx="47" cy="14.72" r="13.26" gradientTransform="translate(-1.18 -1.27) scale(0.86 0.87)" gradientUnits="userSpaceOnUse"><stop offset="0" stop-color="#fffa21"/><stop offset="1" stop-color="#ff950e"/></radialGradient><linearGradient id="linear-gradient" x1="12.65" y1="67.43" x2="49.27" y2="4.01" gradientUnits="userSpaceOnUse"><stop offset="0" stop-color="#7cb9e8"/><stop offset="1" stop-color="#00308f"/></linearGradient><linearGradient id="linear-gradient-2" x1="66.46" y1="66.51" x2="4.16" y2="66.51" xlink:href="#linear-gradient"/></defs><g id="Layer_2" data-name="Layer 2"><g id="Layer_1-2" data-name="Layer 1"><ellipse class="cls-1" cx="39.2" cy="11.53" rx="11.39" ry="11.53"/><path class="cls-2" d="M6.7,40.12l24-18.68a13.07,13.07,0,0,0,17.51-.76A13.43,13.43,0,0,0,49.77,4.29L60,17.51c1,1.35,2.41,3.6,2,6a7.14,7.14,0,0,1-2.65,4.12c-3.68,3.12-20.59,15.89-44.07,33.9a6.55,6.55,0,0,0-2.51,3c-.48,1.54.47,2.94.29,3.07S10.32,64.87,1.3,52.1A6.18,6.18,0,0,1,.07,47.5c.29-1.63,1.36-2.68,3.31-4.6A27.61,27.61,0,0,1,6.7,40.12Z"/><path class="cls-3" d="M66.43,54.11a7.16,7.16,0,0,1-2.74,4.5c-3.55,3.06-20.64,16.31-44.21,34.1-1.31,1.15-2.14,1.49-2.47,2.88-.38,1.65.65,3,.48,3.16S14.71,96,5.09,82.85A7.09,7.09,0,0,1,4.33,78,6.79,6.79,0,0,1,6.7,74.51C11.39,71,27.44,58.69,51.79,40.12a4.74,4.74,0,0,0,1.86-2.49c.64-1.87-.73-3.24-.54-3.36S56,37.86,64.82,49.41A6.86,6.86,0,0,1,66.43,54.11Z"/><path class="cls-4" d="M84,38.09a15,15,0,0,1-2.62-.23,11.29,11.29,0,0,1-2.27-.64l.4-3A16,16,0,0,0,82,35a10.32,10.32,0,0,0,2.23.27A3.3,3.3,0,0,0,86,34.86a1.37,1.37,0,0,0,.63-1.21c0-.69-.43-1.24-1.3-1.65L83.1,30.9a7.09,7.09,0,0,1-2.6-2,4.3,4.3,0,0,1-.93-2.68A4,4,0,0,1,80.94,23a5.93,5.93,0,0,1,3.87-1.13,7.53,7.53,0,0,1,2.77.51,7.18,7.18,0,0,1,2.32,1.48l-2,2.33A6.38,6.38,0,0,0,86.33,25a3.24,3.24,0,0,0-1.5-.4,2.44,2.44,0,0,0-1.53.42,1.44,1.44,0,0,0-.55,1.21,1.52,1.52,0,0,0,.39,1,3.42,3.42,0,0,0,1.1.84l2.13,1.11a7.64,7.64,0,0,1,2.58,2,4,4,0,0,1,.91,2.48A3.82,3.82,0,0,1,88.34,37,7,7,0,0,1,84,38.09Z"/><path class="cls-4" d="M97.89,38.09q-5.26,0-5.26-5.3V22.06h2.94V32.79a2.69,2.69,0,0,0,.57,1.86,2.35,2.35,0,0,0,1.8.62c1.58,0,2.37-.82,2.37-2.48V22.06h2.93V32.79a5.28,5.28,0,0,1-1.36,4A5.48,5.48,0,0,1,97.89,38.09Z"/><path class="cls-4" d="M106.07,37.87V22.06h2.83V37.87Zm6,0-2.78-12.36H108.1V22.06h2.39l2.78,12.36H114v3.45Zm1.59,0V22.06h2.83V37.87Z"/><path class="cls-4" d="M125.78,38.09a6.9,6.9,0,0,1-5.44-2c-1.22-1.36-1.82-3.39-1.82-6.11a8.68,8.68,0,0,1,1.88-6,6.71,6.71,0,0,1,5.29-2.12,7.48,7.48,0,0,1,3,.54,4.43,4.43,0,0,1,2,1.53L128.78,26a3.64,3.64,0,0,0-1.29-1,3.88,3.88,0,0,0-1.66-.37A3.77,3.77,0,0,0,122.72,26a5.93,5.93,0,0,0-1.11,3.84,6.38,6.38,0,0,0,1.11,4.09,4,4,0,0,0,3.33,1.36,7.85,7.85,0,0,0,1.86-.2l1.32-.35,1.06,2.69c-.33.1-.9.23-1.71.41A13.83,13.83,0,0,1,125.78,38.09Zm-1-5.7v-2.7h5.46v2.7Zm2.61,5V29.69h2.92v7.73Z"/><path class="cls-4" d="M132.69,37.87V22.06h2.94V37.87Zm2.79-5.79V29.37h2.84a2.09,2.09,0,0,0,1.59-.6,2.39,2.39,0,0,0,.56-1.7,2.36,2.36,0,0,0-.56-1.7,2.09,2.09,0,0,0-1.59-.6h-2.8l-.27-2.71h3.07a5.73,5.73,0,0,1,3.94,1.25,4.53,4.53,0,0,1,1.39,3.54,5.19,5.19,0,0,1-1.39,3.85,5.37,5.37,0,0,1-3.94,1.38Zm5.24,5.79-3-7.44h3.09l3.39,7.44Z"/><path class="cls-4" d="M146.36,24.7V22.06h10V24.7Zm0,13.17V35.22h10v2.65Zm3.52,0V22.06h2.94V37.87Z"/><path class="cls-4" d="M159.41,37.87V22.06h2.93V37.87Zm2.78,0V35.06h1.23a4.09,4.09,0,0,0,3.26-1.24,5.39,5.39,0,0,0,1.09-3.63,6.27,6.27,0,0,0-1.09-4,3.92,3.92,0,0,0-3.26-1.34h-1.19L162,22.06h1.45q7.43,0,7.43,8.13,0,7.68-7.43,7.68Z"/><path class="cls-4" d="M84,58.09a15,15,0,0,1-2.62-.23,11.29,11.29,0,0,1-2.27-.64l.4-3A16,16,0,0,0,82,55a10.32,10.32,0,0,0,2.23.27A3.3,3.3,0,0,0,86,54.86a1.37,1.37,0,0,0,.63-1.21c0-.69-.43-1.24-1.3-1.65L83.1,50.9a7.09,7.09,0,0,1-2.6-2,4.3,4.3,0,0,1-.93-2.68A4,4,0,0,1,80.94,43a5.93,5.93,0,0,1,3.87-1.13,7.53,7.53,0,0,1,2.77.51,7.18,7.18,0,0,1,2.32,1.48l-2,2.33A6.38,6.38,0,0,0,86.33,45a3.24,3.24,0,0,0-1.5-.4,2.44,2.44,0,0,0-1.53.42,1.44,1.44,0,0,0-.55,1.21,1.52,1.52,0,0,0,.39,1,3.42,3.42,0,0,0,1.1.84l2.13,1.11a7.64,7.64,0,0,1,2.58,2,4,4,0,0,1,.91,2.48A3.82,3.82,0,0,1,88.34,57,7,7,0,0,1,84,58.09Z"/><path class="cls-4" d="M97.94,58.09q-6,0-6-8,0-8.24,6-8.23t6,8.23Q104,58.1,97.94,58.09Zm0-2.81c2,0,2.93-1.73,2.93-5.21s-1-5.43-2.93-5.43S95,46.45,95,50.07,96,55.28,97.94,55.28Z"/><path class="cls-4" d="M106.21,57.87V42.06h2.93V57.87Zm0,0V55.16h10.84v2.71Z"/><path class="cls-4" d="M124.6,58.09q-5.26,0-5.26-5.3V42.06h2.94V52.79a2.69,2.69,0,0,0,.57,1.86,2.35,2.35,0,0,0,1.8.62c1.58,0,2.37-.82,2.37-2.48V42.06H130V52.79a5.28,5.28,0,0,1-1.37,4A5.48,5.48,0,0,1,124.6,58.09Z"/><path class="cls-4" d="M132,44.77V42.06H144v2.71Zm4.5,13.1V42.06h2.94V57.87Z"/><path class="cls-4" d="M146.36,44.7V42.06h10V44.7Zm0,13.17V55.22h10v2.65Zm3.52,0V42.06h2.94V57.87Z"/><path class="cls-4" d="M164.72,58.09q-6,0-6-8,0-8.24,6-8.23t6,8.23Q170.74,58.1,164.72,58.09Zm0-2.81c1.95,0,2.93-1.73,2.93-5.21s-1-5.43-2.93-5.43-2.94,1.81-2.94,5.43S162.76,55.28,164.72,55.28Z"/><path class="cls-4" d="M172.85,57.87V42.06h2.83V57.87Zm6,0-2.78-12.36h-1.21V42.06h2.39l2.78,12.36h.75v3.45Zm1.59,0V42.06h2.83V57.87Z"/><path class="cls-4" d="M190.88,58.09a14.82,14.82,0,0,1-2.61-.23,11.11,11.11,0,0,1-2.27-.64l.4-3a15.28,15.28,0,0,0,2.43.79,10.25,10.25,0,0,0,2.23.27,3.35,3.35,0,0,0,1.83-.42,1.37,1.37,0,0,0,.63-1.21c0-.69-.43-1.24-1.3-1.65L190,50.9a7.21,7.21,0,0,1-2.61-2,4.35,4.35,0,0,1-.92-2.68A4,4,0,0,1,187.79,43a5.93,5.93,0,0,1,3.87-1.13,7.57,7.57,0,0,1,2.77.51,7.18,7.18,0,0,1,2.32,1.48l-2,2.33A6.42,6.42,0,0,0,193.17,45a3.21,3.21,0,0,0-1.5-.4,2.43,2.43,0,0,0-1.52.42,1.42,1.42,0,0,0-.55,1.21,1.52,1.52,0,0,0,.39,1,3.49,3.49,0,0,0,1.09.84l2.14,1.11a7.74,7.74,0,0,1,2.58,2,4,4,0,0,1,.9,2.48A3.82,3.82,0,0,1,195.19,57,7.06,7.06,0,0,1,190.88,58.09Z"/><text class="cls-5" transform="translate(79.86 75.19)">Nigeria Limited</text></g></g></svg>